<svg width="500" height="500" xmlns="http://www.w3.org/2000/svg" preserveAspectRatio="xMidYMid meet" version="1.0">

 <g>
  <title>Layer 1</title>
  <g id="svg_4">
   <g id="svg_1" fill="#D11A2D" transform="translate(0 1052) scale(0.1 -0.1)">
    <path id="svg_2" d="m2285,10103c-115,-219 -219,-410 -233,-425c-40,-43 -70,-37 -201,41c-126,75 -295,170 -298,167c-1,-1 59,-290 134,-642c90,-423 134,-650 129,-668c-17,-67 -89,-87 -145,-40c-17,14 -146,156 -287,316c-141,159 -260,286 -264,281c-4,-4 -40,-81 -80,-171c-40,-90 -81,-167 -91,-172c-10,-6 -31,-10 -48,-10c-27,0 -315,58 -574,116c-42,9 -80,15 -83,12c-2,-3 43,-165 101,-360c58,-195 105,-369 105,-386c0,-71 -20,-87 -222,-176c-32,-14 -58,-27 -58,-30c0,-4 759,-589 1017,-784c105,-79 123,-97 138,-137c13,-32 16,-59 11,-93c-3,-26 -52,-173 -107,-327c-56,-154 -114,-315 -130,-359c-25,-68 -26,-78 -11,-73c9,2 283,127 609,276c325,149 597,271 605,271c18,-1 37,-17 81,-71l37,-46l0,-522l0,-521l80,0l80,0l0,521l0,521l38,48c52,67 71,77 119,57c21,-8 290,-131 598,-272c308,-141 568,-259 577,-262c15,-5 14,5 -11,73c-16,44 -74,205 -130,359c-55,154 -104,301 -107,327c-5,34 -2,61 11,94c15,40 34,58 159,151c315,238 996,764 996,771c0,4 -21,16 -48,26c-194,79 -232,108 -232,178c0,17 48,191 106,386c58,195 103,356 100,359c-2,3 -134,-23 -293,-57c-318,-68 -380,-78 -410,-62c-12,7 -48,73 -93,174c-40,90 -76,167 -80,171c-4,5 -122,-121 -262,-280c-140,-158 -269,-300 -287,-316c-58,-48 -130,-29 -147,38c-4,17 42,255 129,668c75,353 135,642 134,643c-2,2 -200,-109 -323,-182c-107,-63 -140,-68 -176,-25c-14,16 -118,207 -233,425c-114,218 -211,396 -215,396c-4,0 -101,-179 -215,-397z"/>
   </g>
   <path id="svg_3" d="m113.45002,219.79767l103.13156,0l31.86844,-105.42293l31.86846,105.42293l103.13154,0l-83.43503,65.15421l31.87009,105.42293l-83.43507,-65.15598l-83.43505,65.15598l31.8701,-105.42293l-83.43506,-65.15421l0.00002,0z" fill="#fff"/>
  </g>
 </g>
</svg>